<svg width="64" height="64" viewBox="0 0 64 64" xmlns="http://www.w3.org/2000/svg">
  <!-- 猫咪主体 -->
  <ellipse cx="32" cy="36" rx="24" ry="20" fill="#FFB366"/>
  
  <!-- 猫咪耳朵 -->
  <path d="M16 24 L24 16 L28 24 Z" fill="#FFB366"/>
  <path d="M36 24 L40 16 L48 24 Z" fill="#FFB366"/>
  
  <!-- 耳朵内部 -->
  <path d="M19 22 L23 18 L25 22 Z" fill="#FF9999"/>
  <path d="M39 22 L41 18 L45 22 Z" fill="#FF9999"/>
  
  <!-- 猫咪脸部 -->
  <ellipse cx="32" cy="32" rx="16" ry="12" fill="#FFFFFF"/>
  
  <!-- 眼镜框 -->
  <rect x="16" y="26" width="32" height="12" rx="6" fill="#333333"/>
  
  <!-- 眼镜镜片 -->
  <circle cx="24" cy="32" r="6" fill="#000000" opacity="0.8"/>
  <circle cx="40" cy="32" r="6" fill="#000000" opacity="0.8"/>
  
  <!-- 眼镜反光 -->
  <circle cx="26" cy="30" r="1.6" fill="#FFFFFF" opacity="0.6"/>
  <circle cx="42" cy="30" r="1.6" fill="#FFFFFF" opacity="0.6"/>
  
  <!-- 鼻子 -->
  <ellipse cx="32" cy="40" rx="2" ry="1.6" fill="#FF6B9D"/>
  
  <!-- 嘴巴 -->
  <path d="M28 44 Q32 46 36 44" stroke="#333333" stroke-width="3" fill="none" stroke-linecap="round"/>
  
  <!-- 胡须 -->
  <line x1="20" y1="36" x2="12" y2="34" stroke="#333333" stroke-width="2" stroke-linecap="round"/>
  <line x1="20" y1="40" x2="12" y2="40" stroke="#333333" stroke-width="2" stroke-linecap="round"/>
  <line x1="44" y1="36" x2="52" y2="34" stroke="#333333" stroke-width="2" stroke-linecap="round"/>
  <line x1="44" y1="40" x2="52" y2="40" stroke="#333333" stroke-width="2" stroke-linecap="round"/>
  
  <!-- 猫咪身体下部 -->
  <ellipse cx="32" cy="52" rx="12" ry="8" fill="#FFB366"/>
  
  <!-- 小爪子 -->
  <ellipse cx="24" cy="58" rx="3" ry="2" fill="#FFFFFF"/>
  <ellipse cx="32" cy="58" rx="3" ry="2" fill="#FFFFFF"/>
  <ellipse cx="40" cy="58" rx="3" ry="2" fill="#FFFFFF"/>
  
  <!-- 猫咪条纹 -->
  <path d="M24 12 Q28 14 32 12 Q36 14 40 12" stroke="#FF9999" stroke-width="3" fill="none" stroke-linecap="round"/>
  <path d="M20 16 Q24 18 28 16" stroke="#FF9999" stroke-width="3" fill="none" stroke-linecap="round"/>
  <path d="M36 16 Q40 18 44 16" stroke="#FF9999" stroke-width="3" fill="none" stroke-linecap="round"/>
</svg>